<svg width="2695" height="2695" viewBox="0 0 2695 2695" fill="none" xmlns="http://www.w3.org/2000/svg">
<path d="M1283.23 1425.15L1280.05 1100.86H1417.96L1420.29 1425.15C1420.29 1492.19 1454.92 1529 1512.63 1529C1571.77 1529 1608.1 1492.19 1608.1 1424.41V1191.03H1745.16V1425.15C1745.16 1558.6 1657.17 1653.81 1512.9 1653.81C1369.8 1653.81 1283.23 1558.6 1283.23 1425.15Z" fill="#282828"/>
<path d="M1730.89 1082.3C1730.89 1118.92 1760.58 1148.6 1797.2 1148.6C1833.81 1148.6 1863.5 1118.92 1863.5 1082.3C1863.5 1045.68 1833.81 1016 1797.2 1016C1760.58 1016 1730.89 1045.68 1730.89 1082.3Z" fill="#8E3CCB"/>
<path d="M2362.07 1612.7C2362.07 1649.32 2391.76 1679 2428.37 1679C2464.99 1679 2494.67 1649.32 2494.67 1612.7C2494.67 1576.08 2464.99 1546.4 2428.37 1546.4C2391.76 1546.4 2362.07 1576.08 2362.07 1612.7Z" fill="#FF5E32"/>
<path d="M1818.52 1367.28C1818.52 1202.06 1941.84 1085.22 2100.53 1085.22C2259.23 1085.22 2381.64 1201.9 2381.64 1367.28C2381.64 1532.66 2259.65 1649.35 2100.53 1649.35C1941.41 1649.35 1818.52 1531.76 1818.52 1367.28ZM2244.11 1367.28C2244.11 1266.99 2173.41 1209.28 2100.53 1209.28C2026.28 1209.28 1956.26 1266.99 1956.26 1367.28C1956.26 1467.58 2026.22 1524.55 2100.53 1524.55C2173.41 1524.55 2244.11 1467.53 2244.11 1367.28Z" fill="#282828"/>
<path d="M666.01 1370.41C666.01 1532.72 544.813 1639.49 370.259 1639.49H200V1101.39H370.259C545.556 1101.39 666.01 1208.85 666.01 1370.41ZM337.162 1515.43H375.403C467.004 1515.43 527.628 1462.76 527.628 1370.41C527.628 1278.07 466.898 1224.71 375.297 1224.71H337.056L337.162 1515.43Z" fill="#282828"/>
<path d="M1071.82 1433.9H877.057V1639.49H740.001V1101.39H877.057V1309.84H1071.82V1101.39H1208.88V1639.49H1071.82V1433.9Z" fill="#282828"/>
</svg>
